<?xml version="1.0" encoding="iso-8859-1"?>
<!-- Uploaded to: SVG Repo, www.svgrepo.com, Generator: SVG Repo Mixer Tools -->
<svg height="800px" width="800px" version="1.1" id="Layer_1" xmlns="http://www.w3.org/2000/svg" xmlns:xlink="http://www.w3.org/1999/xlink" 
	 viewBox="0 0 512 512" xml:space="preserve">
<g>
	<g>
		<path style="fill:#96241B;" d="M467.967,8.827c-21.363,0-37.508,15.183-44.262,31.779c-6.753-16.596-22.899-31.779-44.262-31.779
			c-44.253,0-58.703,55.331-26.73,88.099c11.908,12.209,67.716,68.017,71.08,70.797c3.902-3.831,59.374-58.43,70.894-70.797
			C526.759,62.543,512.22,8.827,467.967,8.827"/>
		<path style="fill:#96241B;" d="M235.58,220.689c-38.338,0-64.556,20.745-76.685,51.412c-12.12-30.667-38.338-51.412-76.676-51.412
			c-82.158,0-109.55,97.942-50.759,162.816c15.722,17.346,76.924,79.713,108.535,111.81c10.302,10.478,27.507,10.478,37.809,0
			c31.612-32.097,92.813-94.464,108.535-111.81C345.13,318.631,317.738,220.689,235.58,220.689"/>
	</g>
	<path style="fill:#C03A2B;" d="M423.795,167.723c-3.363-2.772-59.171-58.589-71.08-70.797c-2.295-2.339-4.281-4.829-6.1-7.38
		c-17.046,12.518-29.714,30.499-37.65,51.694c-15.492-41.384-48.993-70.621-97.977-70.621c-81.028,0-120.302,78.716-99.496,154.889
		c22.572,7.768,38.682,24.532,47.404,46.592c12.12-30.667,38.338-51.412,76.685-51.412c82.158,0,109.542,97.933,50.75,162.816
		c-5.199,5.747-15.439,16.472-27.886,29.352c15.033,16.172,28.425,30.543,37.659,40.43c7.089,7.592,18.635,7.592,25.724,0
		C356.573,416.061,449.625,316.15,471.8,290.312c50.759-59.154,51.103-138.54,13.683-183.887
		C465.832,126.348,427.026,164.545,423.795,167.723"/>
</g>
</svg>