<?xml version="1.0" encoding="iso-8859-1"?>
<!-- Uploaded to: SVG Repo, www.svgrepo.com, Generator: SVG Repo Mixer Tools -->
<svg height="800px" width="800px" version="1.1" id="Layer_1" xmlns="http://www.w3.org/2000/svg" xmlns:xlink="http://www.w3.org/1999/xlink" 
	 viewBox="0 0 503.497 503.497" xml:space="preserve">
<g>
	<path style="fill:#D75D72;" d="M373.24,17.443c-60.746,0-102.287,29.175-121.492,78.102
		c-19.204-48.926-60.746-78.102-121.492-78.102c-130.169,0-173.559,156.203-80.41,259.688
		c33.063,36.734,193.206,200.079,201.902,208.922c8.695-8.843,168.839-172.188,201.902-208.922
		C546.799,173.647,503.409,17.443,373.24,17.443"/>
	<path style="fill:#F29CAF;" d="M459.177,105.52c-15.325-34.408-45.846-53.361-85.938-53.361
		c-60.746,0-95.596,60.182-121.492,112.814C225.853,112.34,191.002,52.159,130.256,52.159c-40.092,0-70.613,18.953-85.938,53.361
		c-16.844,37.827-13.685,98.373,31.327,148.393c24.663,27.405,126.542,129.423,176.102,180.076
		c49.56-50.653,151.439-152.671,176.102-180.076C472.871,203.893,476.021,143.347,459.177,105.52"/>
</g>
</svg>